<svg width="540" height="420" viewBox="0 0 540 420" fill="none" xmlns="http://www.w3.org/2000/svg">
<path d="M540 369.09H0V369.372H540V369.09Z" fill="#EBEBEB"/>
<path d="M485.892 387.229H450.123V387.511H485.892V387.229Z" fill="#EBEBEB"/>
<path d="M357.718 390.295H348.333V390.577H357.718V390.295Z" fill="#EBEBEB"/>
<path d="M449.043 376.767H428.317V377.049H449.043V376.767Z" fill="#EBEBEB"/>
<path d="M103.302 378.66H56.6565V378.942H103.302V378.66Z" fill="#EBEBEB"/>
<path d="M119.761 378.66H112.925V378.942H119.761V378.66Z" fill="#EBEBEB"/>
<path d="M243.162 383.418H141.988V383.7H243.162V383.418Z" fill="#EBEBEB"/>
<path d="M255.96 318.81H47.4228C45.7892 318.807 44.2234 318.128 43.0692 316.921C41.9151 315.714 41.2668 314.079 41.2668 312.373V6.38072C41.2811 4.68523 41.9356 3.06407 43.0882 1.86937C44.2408 0.674663 45.7985 0.00290445 47.4228 0H255.96C257.596 0 259.164 0.678191 260.321 1.88538C261.477 3.09257 262.127 4.72986 262.127 6.43708V312.373C262.127 314.081 261.477 315.718 260.321 316.925C259.164 318.132 257.596 318.81 255.96 318.81ZM47.4228 0.225468C45.8608 0.228454 44.3637 0.878268 43.2602 2.03228C42.1566 3.18629 41.5368 4.75019 41.5368 6.38072V312.373C41.5368 314.004 42.1566 315.568 43.2602 316.722C44.3637 317.876 45.8608 318.526 47.4228 318.529H255.96C257.523 318.526 259.021 317.876 260.127 316.722C261.232 315.569 261.854 314.005 261.857 312.373V6.38072C261.854 4.74916 261.232 3.18528 260.127 2.03159C259.021 0.877901 257.523 0.228448 255.96 0.225468H47.4228Z" fill="#EBEBEB"/>
<path d="M489.575 318.81H281.027C279.392 318.807 277.825 318.128 276.669 316.922C275.514 315.715 274.863 314.08 274.86 312.373V6.38072C274.877 4.68421 275.534 3.06306 276.688 1.86866C277.843 0.674269 279.402 0.00287278 281.027 0H489.575C491.197 0.00586721 492.752 0.678937 493.903 1.87332C495.053 3.06771 495.706 4.68718 495.72 6.38072V312.373C495.72 314.077 495.073 315.711 493.922 316.917C492.77 318.124 491.207 318.804 489.575 318.81ZM281.027 0.225468C279.464 0.228448 277.966 0.877901 276.86 2.03159C275.755 3.18528 275.133 4.74916 275.13 6.38072V312.373C275.133 314.005 275.755 315.569 276.86 316.722C277.966 317.876 279.464 318.526 281.027 318.529H489.575C491.138 318.526 492.636 317.876 493.741 316.722C494.847 315.569 495.469 314.005 495.472 312.373V6.38072C495.469 4.74916 494.847 3.18528 493.741 2.03159C492.636 0.877901 491.138 0.228448 489.575 0.225468H281.027Z" fill="#EBEBEB"/>
<path d="M399.686 271.812V293.851L408.596 300.615H366.962L380.268 295.474V273.345L399.686 271.812Z" fill="#E0E0E0"/>
<path d="M281.038 299.984V369.417H485.881V299.984H281.038ZM284.386 304.494H448.848V327.187H284.386V304.494Z" fill="#E0E0E0"/>
<path d="M281.038 299.984V369.417H453.319V299.984H281.038ZM284.386 304.494H448.848V327.187H284.386V304.494Z" fill="#EBEBEB"/>
<path d="M284.396 327.175H314.377V304.482H284.396V327.175Z" fill="#E0E0E0"/>
<path d="M405.432 327.175H448.848V315.834H405.432V327.175Z" fill="#E0E0E0"/>
<path d="M374.76 327.175H402.689V320.433H374.76V327.175Z" fill="#E0E0E0"/>
<path d="M335.383 327.187H368.312V313.399H335.383V327.187Z" fill="#E0E0E0"/>
<path d="M416.145 332.113L416.945 334.83H427.626L428.425 332.113H448.848V362.236H395.733V332.113H416.145Z" fill="#E0E0E0"/>
<path d="M360.547 332.113L361.347 334.83H372.028L372.816 332.113H393.239V362.236H340.125V332.113H360.547Z" fill="#E0E0E0"/>
<path d="M304.949 332.113L305.748 334.83H316.419L317.218 332.113H337.641V362.236H284.526V332.113H304.949Z" fill="#E0E0E0"/>
<path d="M311.839 284.979H452.995C455.101 284.979 456.808 283.198 456.808 281V195.12C456.808 192.922 455.101 191.14 452.995 191.14H311.839C309.734 191.14 308.027 192.922 308.027 195.12V281C308.027 283.198 309.734 284.979 311.839 284.979Z" fill="#E0E0E0"/>
<path d="M308.34 284.979H449.496C451.602 284.979 453.309 283.198 453.309 281V195.12C453.309 192.922 451.602 191.14 449.496 191.14H308.34C306.235 191.14 304.528 192.922 304.528 195.12V281C304.528 283.198 306.235 284.979 308.34 284.979Z" fill="#E6E6E6"/>
<path d="M448.945 280.414V195.706H308.913V280.414H448.945Z" fill="#F0F0F0"/>
<path d="M471.517 32.1631H349.887V172.652H471.517V32.1631Z" fill="#E9E9E9"/>
<path d="M466.474 37.7319H355.234V167.375H466.474V37.7319Z" fill="#F4F4F4"/>
<path d="M386.672 37.7319L355.234 160.634V94.0987L369.619 37.7319H386.672Z" fill="white"/>
<path d="M400.723 37.7319L367.567 167.375H361.314L394.47 37.7319H400.723Z" fill="white"/>
<path d="M466.473 73.085V139.632L459.432 167.375H442.378L466.473 73.085Z" fill="white"/>
<path d="M412.851 32.1631H408.531V172.652H412.851V32.1631Z" fill="#E9E9E9"/>
<path d="M469.173 60.6733H351.993V65.1827H469.173V60.6733Z" fill="#E9E9E9"/>
<path d="M77.0793 153.014V187.972H124.459V153.014H77.0793Z" fill="#E0E0E0"/>
<path d="M79.3042 155.302V185.695H122.234V155.302H79.3042Z" fill="#EBEBEB"/>
<path d="M93.5171 109.115V144.073H140.897V109.115H93.5171Z" fill="#E0E0E0"/>
<path d="M95.7419 111.403V141.796H138.672V111.403H95.7419Z" fill="#EBEBEB"/>
<path d="M163.609 153.024H133.456V197.554H163.609V153.024Z" fill="#E0E0E0"/>
<path d="M161.644 155.121H135.421V195.468H161.644V155.121Z" fill="#EBEBEB"/>
<path d="M180.76 94.606H147.269V144.062H180.76V94.606Z" fill="#E0E0E0"/>
<path d="M178.567 96.9395H149.45V141.751H178.567V96.9395Z" fill="#EBEBEB"/>
<path d="M210.946 180.396V153.024H173.848V180.396H210.946Z" fill="#E0E0E0"/>
<path d="M209.196 178.604V154.806H175.586V178.604H209.196Z" fill="#EBEBEB"/>
<path d="M69.1201 231.679H186.214C188.744 231.682 191.17 232.733 192.958 234.602C194.746 236.47 195.75 239.003 195.75 241.644L208.71 327.84H72.5005L59.5405 241.644C59.5391 240.332 59.7861 239.033 60.2674 237.821C60.7488 236.609 61.4548 235.509 62.3451 234.582C63.2354 233.656 64.2922 232.923 65.4549 232.425C66.6176 231.926 67.8633 231.673 69.1201 231.679Z" fill="#EBEBEB"/>
<path d="M208.365 265.014L208.224 264.574H253.584V369.416H197.424V277.144C197.382 274.035 198.5 271.031 200.542 268.767C202.584 266.503 205.389 265.157 208.365 265.014Z" fill="#E0E0E0"/>
<path d="M254.059 264.991C257.143 264.997 260.099 266.28 262.278 268.559C264.456 270.837 265.68 273.925 265.68 277.144V369.416H242.417V277.144C242.417 273.921 243.643 270.83 245.827 268.551C248.01 266.272 250.971 264.991 254.059 264.991Z" fill="#F0F0F0"/>
<path d="M77.6842 265.014L77.5438 264.574H122.904V369.416H66.7438V277.144C66.7014 274.035 67.8194 271.031 69.8613 268.767C71.9031 266.503 74.7086 265.157 77.6842 265.014Z" fill="#E0E0E0"/>
<path d="M135.022 369.416H234.825V295.576H135.022V369.416Z" fill="#E0E0E0"/>
<path d="M228.323 313.603H116.003V288.001H228.323C231.577 288.001 234.697 289.35 236.998 291.752C239.299 294.153 240.592 297.411 240.592 300.807C240.589 304.202 239.295 307.456 236.995 309.856C234.694 312.255 231.575 313.603 228.323 313.603Z" fill="#F5F5F5"/>
<path d="M123.379 264.991C126.463 264.997 129.419 266.28 131.598 268.559C133.776 270.837 135 273.925 135 277.144V369.416H111.737V277.144C111.737 273.921 112.963 270.83 115.147 268.551C117.33 266.272 120.291 264.991 123.379 264.991Z" fill="#F0F0F0"/>
<path d="M91.5733 329.114H72.5005L59.5405 241.644C59.5391 240.332 59.7861 239.033 60.2674 237.821C60.7488 236.609 61.4548 235.509 62.3451 234.582C63.2354 233.656 64.2922 232.923 65.4549 232.425C66.6176 231.926 67.8633 231.673 69.1201 231.679C70.3739 231.679 71.6154 231.937 72.7737 232.437C73.932 232.938 74.9845 233.672 75.871 234.598C76.7576 235.523 77.4608 236.622 77.9406 237.831C78.4204 239.04 78.6673 240.336 78.6673 241.644L91.5733 329.114Z" fill="#E0E0E0"/>
<path d="M64.0762 23.0879V56.3668C64.0811 56.7977 64.1702 57.223 64.338 57.6166C64.5058 58.0103 64.7488 58.3641 65.052 58.6564C65.3553 58.9487 65.7125 59.1734 66.1019 59.3166C66.4912 59.4599 66.9044 59.5187 67.3162 59.4896H175.122C175.122 59.4896 187.585 53.4245 186.699 44.9469C185.997 38.1829 185.263 32.6703 184.658 28.4766C184.303 26.0141 183.109 23.7677 181.296 22.1487C179.484 20.5297 177.173 19.6465 174.787 19.6608H67.3162C66.8871 19.6608 66.4622 19.7497 66.0663 19.9225C65.6703 20.0953 65.3112 20.3484 65.0098 20.6673C64.7083 20.9861 64.4706 21.3643 64.3103 21.7798C64.1501 22.1954 64.0705 22.64 64.0762 23.0879Z" fill="#F5F5F5"/>
<path d="M64.0764 23.0878V56.3667C64.0814 56.7976 64.1704 57.2228 64.3382 57.6165C64.506 58.0102 64.749 58.364 65.0523 58.6563C65.3555 58.9486 65.7128 59.1733 66.1021 59.3165C66.4914 59.4598 66.9046 59.5186 67.3164 59.4894H76.8312C76.8312 59.4894 89.2944 53.4244 88.4088 44.9468C87.696 38.2166 86.9724 32.6927 86.4 28.5103C86.0444 26.0478 84.8509 23.8014 83.0382 22.1824C81.2254 20.5634 78.9145 19.6802 76.5288 19.6945H67.3488C66.9197 19.69 66.494 19.7746 66.0965 19.9432C65.6989 20.1119 65.3374 20.3613 65.033 20.677C64.7285 20.9927 64.4872 21.3684 64.323 21.7822C64.1588 22.1961 64.075 22.6398 64.0764 23.0878Z" fill="#E6E6E6"/>
<path d="M184.227 47.6636H90.0505C90.0505 47.6636 86.9401 54.856 81.6589 57.8096H173.675C173.675 57.8096 183.417 53.165 184.227 47.6636Z" fill="#E0E0E0"/>
<path d="M177.725 54.439H86.8105L88.1605 57.8322H177.725V54.439Z" fill="#EBEBEB"/>
<path d="M180.976 50.2002H90.0505L91.4113 53.5935H180.976V50.2002Z" fill="#EBEBEB"/>
<path d="M93.3014 46.1079H95.6018V45.1158H93.3014V46.1079Z" fill="#E0E0E0"/>
<path d="M96.5409 46.1079H98.8413V45.1158H96.5409V46.1079Z" fill="#E0E0E0"/>
<path d="M270 420C385.649 420 479.401 414.287 479.401 407.239C479.401 400.191 385.649 394.478 270 394.478C154.351 394.478 60.5986 400.191 60.5986 407.239C60.5986 414.287 154.351 420 270 420Z" fill="#F5F5F5"/>
<path d="M97.9562 325.913C98.183 327.57 93.8738 328.664 90.3962 329.295C90.6878 332.305 92.5562 335.349 95.2454 338.19C98.5826 336.228 103.335 333.68 104.22 334.278C105.106 334.875 100.267 338.201 97.2002 340.162C99.3795 342.142 101.685 343.965 104.101 345.619C105.592 344.164 107.341 342.879 108.421 343.578C109.501 344.277 109.21 346.543 108.67 348.561C112.299 350.759 115.009 352.101 115.009 352.101C116.065 348.585 116.877 344.995 117.439 341.357C117.256 340.985 117.072 340.602 116.899 340.23C116.316 338.821 116.899 338.223 117.85 338.032C118.125 335.459 118.146 332.864 117.915 330.287C113.811 329.385 108.821 327.728 110.689 325.158C111.769 323.613 113.929 323.433 116.025 323.816C115.733 323.304 115.393 322.825 115.009 322.384C107.547 313.794 102.341 322.384 102.341 322.384C98.021 318.608 91.8974 319.622 90.5798 325.53C93.0098 324.842 97.6754 323.872 97.9562 325.913Z" fill="#1D6E71"/>
<path opacity="0.3" d="M97.9562 325.913C98.183 327.57 93.8738 328.664 90.3962 329.295C90.6878 332.305 92.5562 335.349 95.2454 338.19C98.5826 336.228 103.335 333.68 104.22 334.278C105.106 334.875 100.267 338.201 97.2002 340.162C99.3795 342.142 101.685 343.965 104.101 345.619C105.592 344.164 107.341 342.879 108.421 343.578C109.501 344.277 109.21 346.543 108.67 348.561C112.299 350.759 115.009 352.101 115.009 352.101C116.065 348.585 116.877 344.995 117.439 341.357C117.256 340.985 117.072 340.602 116.899 340.23C116.316 338.821 116.899 338.223 117.85 338.032C118.125 335.459 118.146 332.864 117.915 330.287C113.811 329.385 108.821 327.728 110.689 325.158C111.769 323.613 113.929 323.433 116.025 323.816C115.733 323.304 115.393 322.825 115.009 322.384C107.547 313.794 102.341 322.384 102.341 322.384C98.021 318.608 91.8974 319.622 90.5798 325.53C93.0098 324.842 97.6754 323.872 97.9562 325.913Z" fill="white"/>
<path d="M107.276 389.033L106.196 388.943C106.196 388.356 110.613 330.851 98.2471 325.429C97.6571 325.143 97.0119 325.004 96.3619 325.021C95.7118 325.039 95.0745 325.213 94.4995 325.53C90.0391 327.954 87.9007 338.021 87.8791 338.122L86.7991 337.886C86.8855 337.457 89.0671 327.198 93.9811 324.527C94.6968 324.132 95.4898 323.915 96.2988 323.892C97.1077 323.868 97.911 324.039 98.6467 324.391C111.747 330.129 107.459 386.677 107.276 389.033Z" fill="#1D6E71"/>
<path d="M108.831 387.804C108.615 385.222 103.561 324.38 113 317.909C115.268 316.353 117.32 316.026 118.994 316.928C123.454 319.284 124.038 329.227 124.059 329.656L122.979 329.723C122.979 329.622 122.407 319.994 118.508 317.943C117.158 317.232 115.506 317.537 113.594 318.845C104.695 324.943 109.857 387.071 109.9 387.702L108.831 387.804Z" fill="#1D6E71"/>
<path d="M110.246 392.708C110.182 390.724 108.626 344.154 117.212 340.073C118.014 339.683 118.888 339.48 119.772 339.48C120.656 339.48 121.53 339.683 122.332 340.073C128.228 342.778 131.868 354.254 132.052 354.728L131.026 355.077C131.026 354.965 127.375 343.601 121.921 341.098C121.262 340.77 120.54 340.6 119.81 340.6C119.079 340.6 118.358 340.77 117.698 341.098C111.11 344.221 110.884 379.428 111.359 392.663L110.246 392.708Z" fill="#1D6E71"/>
<path d="M108.065 390.577L106.985 390.453C108.508 376.587 111.402 339.644 106.672 335.214C106.442 334.925 106.138 334.711 105.795 334.599C105.451 334.487 105.085 334.481 104.738 334.582C101.52 335.947 99.6299 347.896 99.1547 352.428L98.0747 352.304C98.2583 350.568 99.9863 335.304 104.339 333.568C104.867 333.379 105.437 333.357 105.977 333.506C106.517 333.654 107.003 333.966 107.374 334.402C113.497 340.095 108.292 388.514 108.065 390.577Z" fill="#1D6E71"/>
<path d="M90.0398 364.299H128.844L125.604 409.663H93.2798L90.0398 364.299Z" fill="#263238"/>
<path opacity="0.2" d="M101.822 364.299L102.902 409.663H125.604L128.844 364.299H101.822Z" fill="white"/>
<path d="M95.3208 347.648C94.9212 348.775 91.9081 347.885 89.5429 347.005C88.7329 348.967 88.9165 351.515 89.6185 354.22C92.3077 354.22 96.0984 354.31 96.4332 355.021C96.768 355.731 92.7072 356.069 90.1908 356.148C90.8844 358.152 91.7108 360.103 92.6641 361.988C94.0573 361.615 95.5584 361.458 95.9688 362.258C96.3792 363.058 95.4828 364.366 94.4892 365.415C96.0012 368.075 97.2324 369.924 97.2324 369.924C99.0411 368.124 100.72 366.188 102.254 364.129C102.254 363.836 102.254 363.532 102.254 363.228C102.362 362.1 102.913 361.976 103.572 362.202C104.584 360.711 105.449 359.117 106.153 357.444C103.918 355.426 101.38 352.619 103.378 351.695C104.587 351.154 105.916 351.774 107.104 352.822C107.097 352.401 107.047 351.981 106.952 351.571C105.17 343.601 99.1441 347.062 99.1441 347.062C97.7077 343.184 93.6036 341.639 90.8604 344.807C92.6316 345.213 95.8284 346.284 95.3208 347.648Z" fill="#1D6E71"/>
<path opacity="0.3" d="M95.3208 347.648C94.9212 348.775 91.9081 347.885 89.5429 347.005C88.7329 348.967 88.9165 351.515 89.6185 354.22C92.3077 354.22 96.0984 354.31 96.4332 355.021C96.768 355.731 92.7072 356.069 90.1908 356.148C90.8844 358.152 91.7108 360.103 92.6641 361.988C94.0573 361.615 95.5584 361.458 95.9688 362.258C96.3792 363.058 95.4828 364.366 94.4892 365.415C96.0012 368.075 97.2324 369.924 97.2324 369.924C99.0411 368.124 100.72 366.188 102.254 364.129C102.254 363.836 102.254 363.532 102.254 363.228C102.362 362.1 102.913 361.976 103.572 362.202C104.584 360.711 105.449 359.117 106.153 357.444C103.918 355.426 101.38 352.619 103.378 351.695C104.587 351.154 105.916 351.774 107.104 352.822C107.097 352.401 107.047 351.981 106.952 351.571C105.17 343.601 99.1441 347.062 99.1441 347.062C97.7077 343.184 93.6036 341.639 90.8604 344.807C92.6316 345.213 95.8284 346.284 95.3208 347.648Z" fill="white"/>
<path d="M124.135 353.037C122.928 353.141 121.738 353.403 120.593 353.815C120.281 352.955 120.102 352.05 120.064 351.132C119.815 342.97 125.464 346.408 128.38 344.007C129.054 343.394 129.842 342.933 130.696 342.654C131.549 342.375 132.448 342.282 133.337 342.384C133.081 342.836 132.858 343.307 132.667 343.793C132.596 343.97 132.565 344.162 132.576 344.354C132.587 344.546 132.639 344.733 132.73 344.901C132.821 345.068 132.947 345.212 133.099 345.321C133.251 345.43 133.424 345.501 133.607 345.529C134.336 345.679 135.092 345.584 135.767 345.258C135.967 345.144 136.155 345.008 136.328 344.852C136.801 345.708 137.165 346.626 137.408 347.581C137.701 348.722 137.871 349.894 137.916 351.075C137.468 351.174 137.028 351.306 136.598 351.47C136.429 351.547 136.278 351.663 136.158 351.809C136.037 351.956 135.95 352.129 135.904 352.316C135.857 352.503 135.851 352.698 135.887 352.887C135.924 353.077 136.001 353.255 136.112 353.409C136.583 353.898 137.131 354.298 137.732 354.593C137.529 355.899 137.196 357.18 136.739 358.414L136.339 358.482C136.058 358.538 135.778 358.617 135.497 358.696L135.032 358.876C134.84 358.964 134.672 359.101 134.544 359.275C134.416 359.448 134.331 359.652 134.298 359.868C134.28 360.082 134.313 360.296 134.394 360.493C134.475 360.69 134.602 360.863 134.762 360.996C134.946 361.137 135.141 361.261 135.346 361.368C134.599 362.715 133.531 363.837 132.246 364.626C131.111 364.089 130.008 363.483 128.941 362.811C129.179 362.484 129.416 362.157 129.632 361.819C129.887 361.446 130.005 360.99 129.967 360.534C129.898 360.088 129.67 359.686 129.33 359.406C129.157 359.266 128.959 359.163 128.748 359.103C128.536 359.043 128.316 359.028 128.099 359.057C127.672 359.13 127.286 359.367 127.019 359.722C126.76 360.128 126.468 360.511 126.187 360.849C124.693 359.699 123.355 358.341 122.213 356.813H122.332C123.04 356.621 123.762 356.493 124.492 356.43C124.859 356.304 125.173 356.048 125.379 355.706C125.585 355.364 125.671 354.958 125.621 354.557C125.571 354.157 125.389 353.787 125.106 353.512C124.823 353.236 124.457 353.072 124.07 353.048L124.135 353.037Z" fill="#1D6E71"/>
<path opacity="0.5" d="M124.135 353.037C122.928 353.141 121.738 353.403 120.593 353.815C120.281 352.955 120.102 352.05 120.064 351.132C119.815 342.97 125.464 346.408 128.38 344.007C129.054 343.394 129.842 342.933 130.696 342.654C131.549 342.375 132.448 342.282 133.337 342.384C133.081 342.836 132.858 343.307 132.667 343.793C132.596 343.97 132.565 344.162 132.576 344.354C132.587 344.546 132.639 344.733 132.73 344.901C132.821 345.068 132.947 345.212 133.099 345.321C133.251 345.43 133.424 345.501 133.607 345.529C134.336 345.679 135.092 345.584 135.767 345.258C135.967 345.144 136.155 345.008 136.328 344.852C136.801 345.708 137.165 346.626 137.408 347.581C137.701 348.722 137.871 349.894 137.916 351.075C137.468 351.174 137.028 351.306 136.598 351.47C136.429 351.547 136.278 351.663 136.158 351.809C136.037 351.956 135.95 352.129 135.904 352.316C135.857 352.503 135.851 352.698 135.887 352.887C135.924 353.077 136.001 353.255 136.112 353.409C136.583 353.898 137.131 354.298 137.732 354.593C137.529 355.899 137.196 357.18 136.739 358.414L136.339 358.482C136.058 358.538 135.778 358.617 135.497 358.696L135.032 358.876C134.84 358.964 134.672 359.101 134.544 359.275C134.416 359.448 134.331 359.652 134.298 359.868C134.28 360.082 134.313 360.296 134.394 360.493C134.475 360.69 134.602 360.863 134.762 360.996C134.946 361.137 135.141 361.261 135.346 361.368C134.599 362.715 133.531 363.837 132.246 364.626C131.111 364.089 130.008 363.483 128.941 362.811C129.179 362.484 129.416 362.157 129.632 361.819C129.887 361.446 130.005 360.99 129.967 360.534C129.898 360.088 129.67 359.686 129.33 359.406C129.157 359.266 128.959 359.163 128.748 359.103C128.536 359.043 128.316 359.028 128.099 359.057C127.672 359.13 127.286 359.367 127.019 359.722C126.76 360.128 126.468 360.511 126.187 360.849C124.693 359.699 123.355 358.341 122.213 356.813H122.332C123.04 356.621 123.762 356.493 124.492 356.43C124.859 356.304 125.173 356.048 125.379 355.706C125.585 355.364 125.671 354.958 125.621 354.557C125.571 354.157 125.389 353.787 125.106 353.512C124.823 353.236 124.457 353.072 124.07 353.048L124.135 353.037Z" fill="white"/>
<path d="M126.36 324.876C127.028 324.376 127.754 323.967 128.52 323.658C128.323 323.065 128.034 322.509 127.667 322.012C124.362 317.604 122.872 322.012 120.301 322.08C119.698 322.071 119.098 322.191 118.541 322.433C117.984 322.676 117.48 323.035 117.061 323.489C117.382 323.613 117.696 323.756 118.001 323.917C118.114 323.978 118.212 324.065 118.288 324.172C118.364 324.279 118.416 324.402 118.439 324.533C118.462 324.663 118.455 324.798 118.421 324.926C118.386 325.054 118.324 325.171 118.239 325.27C117.918 325.694 117.475 325.999 116.975 326.138C116.817 326.149 116.658 326.149 116.5 326.138C116.62 326.803 116.816 327.45 117.083 328.066C117.411 328.799 117.816 329.491 118.293 330.129C118.568 329.977 118.853 329.845 119.146 329.734C119.267 329.695 119.396 329.684 119.522 329.705C119.648 329.725 119.768 329.775 119.872 329.851C119.976 329.928 120.062 330.028 120.124 330.145C120.185 330.261 120.22 330.391 120.226 330.524C120.187 330.997 120.066 331.459 119.869 331.888C120.535 332.487 121.259 333.012 122.029 333.455L122.267 333.297L122.807 333.026C122.911 332.977 123.019 332.939 123.131 332.914C123.268 332.869 123.413 332.863 123.553 332.894C123.693 332.926 123.823 332.995 123.93 333.094C124.038 333.198 124.117 333.33 124.161 333.477C124.204 333.623 124.21 333.779 124.179 333.928C124.142 334.085 124.095 334.24 124.038 334.39C124.994 334.757 126.025 334.858 127.03 334.683C127.404 333.883 127.729 333.058 128.002 332.215L127.224 332.012C126.936 331.93 126.684 331.747 126.511 331.493C126.349 331.225 126.295 330.901 126.36 330.591C126.389 330.438 126.448 330.293 126.534 330.165C126.619 330.037 126.729 329.929 126.857 329.847C127.114 329.678 127.424 329.621 127.721 329.689C128.023 329.78 128.337 329.847 128.639 329.926C128.946 328.64 129.08 327.316 129.039 325.992H128.963C128.501 326.216 128.06 326.484 127.645 326.792C127.52 326.877 127.38 326.934 127.233 326.962C127.086 326.99 126.935 326.987 126.789 326.954C126.643 326.921 126.505 326.859 126.382 326.77C126.26 326.681 126.155 326.568 126.074 326.437C125.993 326.306 125.938 326.16 125.911 326.006C125.884 325.853 125.887 325.696 125.919 325.543C125.95 325.391 126.01 325.247 126.095 325.119C126.18 324.99 126.289 324.881 126.414 324.797L126.36 324.876Z" fill="#1D6E71"/>
<path opacity="0.3" d="M126.36 324.876C127.028 324.376 127.754 323.967 128.52 323.658C128.323 323.065 128.034 322.509 127.667 322.012C124.362 317.604 122.872 322.012 120.301 322.08C119.698 322.071 119.098 322.191 118.541 322.433C117.984 322.676 117.48 323.035 117.061 323.489C117.382 323.613 117.696 323.756 118.001 323.917C118.114 323.978 118.212 324.065 118.288 324.172C118.364 324.279 118.416 324.402 118.439 324.533C118.462 324.663 118.455 324.798 118.421 324.926C118.386 325.054 118.324 325.171 118.239 325.27C117.918 325.694 117.475 325.999 116.975 326.138C116.817 326.149 116.658 326.149 116.5 326.138C116.62 326.803 116.816 327.45 117.083 328.066C117.411 328.799 117.816 329.491 118.293 330.129C118.568 329.977 118.853 329.845 119.146 329.734C119.267 329.695 119.396 329.684 119.522 329.705C119.648 329.725 119.768 329.775 119.872 329.851C119.976 329.928 120.062 330.028 120.124 330.145C120.185 330.261 120.22 330.391 120.226 330.524C120.187 330.997 120.066 331.459 119.869 331.888C120.535 332.487 121.259 333.012 122.029 333.455L122.267 333.297L122.807 333.026C122.911 332.977 123.019 332.939 123.131 332.914C123.268 332.869 123.413 332.863 123.553 332.894C123.693 332.926 123.823 332.995 123.93 333.094C124.038 333.198 124.117 333.33 124.161 333.477C124.204 333.623 124.21 333.779 124.179 333.928C124.142 334.085 124.095 334.24 124.038 334.39C124.994 334.757 126.025 334.858 127.03 334.683C127.404 333.883 127.729 333.058 128.002 332.215L127.224 332.012C126.936 331.93 126.684 331.747 126.511 331.493C126.349 331.225 126.295 330.901 126.36 330.591C126.389 330.438 126.448 330.293 126.534 330.165C126.619 330.037 126.729 329.929 126.857 329.847C127.114 329.678 127.424 329.621 127.721 329.689C128.023 329.78 128.337 329.847 128.639 329.926C128.946 328.64 129.08 327.316 129.039 325.992H128.963C128.501 326.216 128.06 326.484 127.645 326.792C127.52 326.877 127.38 326.934 127.233 326.962C127.086 326.99 126.935 326.987 126.789 326.954C126.643 326.921 126.505 326.859 126.382 326.77C126.26 326.681 126.155 326.568 126.074 326.437C125.993 326.306 125.938 326.16 125.911 326.006C125.884 325.853 125.887 325.696 125.919 325.543C125.95 325.391 126.01 325.247 126.095 325.119C126.18 324.99 126.289 324.881 126.414 324.797L126.36 324.876Z" fill="white"/>
<path d="M94.7589 333.049C94.5321 334.706 98.8413 335.8 102.319 336.431C102.027 339.441 100.159 342.485 97.4589 345.315C94.1325 343.364 89.3697 340.805 88.4949 341.403C87.6201 342 92.4153 345.382 95.4609 347.31C93.2838 349.286 90.9779 351.102 88.5597 352.744C87.0693 351.29 85.3197 350.016 84.2397 350.703C83.1597 351.391 83.4513 353.68 83.9913 355.686C80.3625 357.941 77.6517 359.237 77.6517 359.237C76.5965 355.721 75.7844 352.131 75.2217 348.494C75.4053 348.111 75.5889 347.739 75.7509 347.366C76.3449 345.957 75.7509 345.36 74.8113 345.112C74.531 342.54 74.5093 339.944 74.7465 337.367C78.8505 336.476 83.8401 334.808 81.9717 332.238C80.8917 330.693 78.7857 330.513 76.6365 330.907C76.9283 330.392 77.2683 329.909 77.6517 329.464C85.1145 320.874 90.3201 329.464 90.3201 329.464C94.6401 325.688 100.753 326.714 102.071 332.61C99.7053 331.967 95.0397 330.998 94.7589 333.049Z" fill="#1D6E71"/>
<path opacity="0.5" d="M94.7589 333.049C94.5321 334.706 98.8413 335.8 102.319 336.431C102.027 339.441 100.159 342.485 97.4589 345.315C94.1325 343.364 89.3697 340.805 88.4949 341.403C87.6201 342 92.4153 345.382 95.4609 347.31C93.2838 349.286 90.9779 351.102 88.5597 352.744C87.0693 351.29 85.3197 350.016 84.2397 350.703C83.1597 351.391 83.4513 353.68 83.9913 355.686C80.3625 357.941 77.6517 359.237 77.6517 359.237C76.5965 355.721 75.7844 352.131 75.2217 348.494C75.4053 348.111 75.5889 347.739 75.7509 347.366C76.3449 345.957 75.7509 345.36 74.8113 345.112C74.531 342.54 74.5093 339.944 74.7465 337.367C78.8505 336.476 83.8401 334.808 81.9717 332.238C80.8917 330.693 78.7857 330.513 76.6365 330.907C76.9283 330.392 77.2683 329.909 77.6517 329.464C85.1145 320.874 90.3201 329.464 90.3201 329.464C94.6401 325.688 100.753 326.714 102.071 332.61C99.7053 331.967 95.0397 330.998 94.7589 333.049Z" fill="white"/>
<path d="M416.286 409.662L436.968 266.209V409.662H442.519V265.318L463.223 409.662H469.174L443.254 228.973L442.519 229.086V223.212H436.968V229.063L436.201 228.973L410.216 409.662H416.286Z" fill="#1D6E71"/>
<path opacity="0.3" d="M416.286 409.662L436.968 266.209V409.662H442.519V265.318L463.223 409.662H469.174L443.254 228.973L442.519 229.086V223.212H436.968V229.063L436.201 228.973L410.216 409.662H416.286Z" fill="white"/>
<path d="M468.202 249.017H410.983L415.616 199.11H463.568L468.202 249.017Z" fill="#1D6E71"/>
<g opacity="0.5">
<path opacity="0.5" d="M468.202 249.017H410.983L415.616 199.11H463.568L468.202 249.017Z" fill="white"/>
</g>
<path d="M324 184.218H305.187C304.786 184.218 304.401 184.052 304.118 183.756C303.834 183.46 303.675 183.058 303.675 182.64V136.137C303.881 136.035 304.058 135.876 304.185 135.677C304.311 135.479 304.384 135.248 304.395 135.009C304.406 134.771 304.355 134.534 304.247 134.323C304.139 134.112 303.979 133.936 303.782 133.814C303.586 133.691 303.362 133.626 303.133 133.626C302.904 133.627 302.68 133.691 302.484 133.814C302.287 133.937 302.127 134.113 302.019 134.324C301.911 134.534 301.86 134.771 301.871 135.01C301.881 135.249 301.954 135.48 302.082 135.679C302.209 135.878 302.387 136.036 302.595 136.137V182.628C302.593 182.984 302.659 183.337 302.789 183.666C302.919 183.995 303.11 184.293 303.351 184.545C303.592 184.796 303.878 184.996 304.193 185.131C304.508 185.267 304.846 185.336 305.187 185.334H324C324.401 185.334 324.786 185.5 325.069 185.796C325.353 186.092 325.512 186.494 325.512 186.912V213.529H326.592V186.924C326.592 186.568 326.525 186.216 326.395 185.888C326.265 185.56 326.074 185.262 325.833 185.01C325.592 184.759 325.307 184.56 324.992 184.424C324.678 184.288 324.341 184.218 324 184.218Z" fill="#1D6E71"/>
<path opacity="0.4" d="M324 184.218H305.187C304.786 184.218 304.401 184.052 304.118 183.756C303.834 183.46 303.675 183.058 303.675 182.64V136.137C303.881 136.035 304.058 135.876 304.185 135.677C304.311 135.479 304.384 135.248 304.395 135.009C304.406 134.771 304.355 134.534 304.247 134.323C304.139 134.112 303.979 133.936 303.782 133.814C303.586 133.691 303.362 133.626 303.133 133.626C302.904 133.627 302.68 133.691 302.484 133.814C302.287 133.937 302.127 134.113 302.019 134.324C301.911 134.534 301.86 134.771 301.871 135.01C301.881 135.249 301.954 135.48 302.082 135.679C302.209 135.878 302.387 136.036 302.595 136.137V182.628C302.593 182.984 302.659 183.337 302.789 183.666C302.919 183.995 303.11 184.293 303.351 184.545C303.592 184.796 303.878 184.996 304.193 185.131C304.508 185.267 304.846 185.336 305.187 185.334H324C324.401 185.334 324.786 185.5 325.069 185.796C325.353 186.092 325.512 186.494 325.512 186.912V213.529H326.592V186.924C326.592 186.568 326.525 186.216 326.395 185.888C326.265 185.56 326.074 185.262 325.833 185.01C325.592 184.759 325.307 184.56 324.992 184.424C324.678 184.288 324.341 184.218 324 184.218Z" fill="white"/>
<path d="M346.507 212.413H305.5C303.895 212.413 302.594 213.77 302.594 215.445V260.64C302.594 262.315 303.895 263.673 305.5 263.673H346.507C348.112 263.673 349.412 262.315 349.412 260.64V215.445C349.412 213.77 348.112 212.413 346.507 212.413Z" fill="#1D6E71"/>
<path opacity="0.4" d="M346.507 212.413H305.5C303.895 212.413 302.594 213.77 302.594 215.445V260.64C302.594 262.315 303.895 263.673 305.5 263.673H346.507C348.112 263.673 349.412 262.315 349.412 260.64V215.445C349.412 213.77 348.112 212.413 346.507 212.413Z" fill="white"/>
<path opacity="0.2" d="M329.152 241.893H322.855V248.465H329.152V241.893Z" fill="white"/>
<path opacity="0.2" d="M335.988 220.484H329.692V227.057H335.988V220.484Z" fill="white"/>
<path opacity="0.2" d="M322.316 249.028H316.019V255.601H322.316V249.028Z" fill="white"/>
<path opacity="0.2" d="M335.988 227.621H329.692V234.193H335.988V227.621Z" fill="white"/>
<path opacity="0.2" d="M335.988 234.757H329.692V241.329H335.988V234.757Z" fill="white"/>
<path opacity="0.2" d="M329.152 227.621H322.855V234.193H329.152V227.621Z" fill="white"/>
<path opacity="0.2" d="M329.152 212.977H322.855V219.921H329.152V212.977Z" fill="white"/>
<path opacity="0.2" d="M322.316 241.893H316.019V248.465H322.316V241.893Z" fill="white"/>
<path opacity="0.2" d="M329.152 220.484H322.855V227.057H329.152V220.484Z" fill="white"/>
<path opacity="0.2" d="M329.152 249.028H322.855V255.601H329.152V249.028Z" fill="white"/>
<path opacity="0.2" d="M335.988 249.028H329.692V255.601H335.988V249.028Z" fill="white"/>
<path opacity="0.2" d="M329.152 234.757H322.855V241.329H329.152V234.757Z" fill="white"/>
<path opacity="0.2" d="M335.988 212.977H329.692V219.921H335.988V212.977Z" fill="white"/>
<path opacity="0.2" d="M308.643 241.893H303.135V248.465H308.643V241.893Z" fill="white"/>
<path opacity="0.2" d="M308.643 220.484H303.135V227.057H308.643V220.484Z" fill="white"/>
<path opacity="0.2" d="M308.643 234.757H303.135V241.329H308.643V234.757Z" fill="white"/>
<path opacity="0.2" d="M308.643 227.621H303.135V234.193H308.643V227.621Z" fill="white"/>
<path opacity="0.2" d="M335.988 241.893H329.692V248.465H335.988V241.893Z" fill="white"/>
<path opacity="0.2" d="M343.365 219.921H348.84V215.411C348.84 214.756 348.591 214.128 348.148 213.665C347.704 213.202 347.102 212.942 346.475 212.942H343.332L343.365 219.921Z" fill="white"/>
<path opacity="0.2" d="M342.825 220.484H336.528V227.057H342.825V220.484Z" fill="white"/>
<path opacity="0.2" d="M308.643 249.028H303.135V255.601H308.643V249.028Z" fill="white"/>
<path opacity="0.2" d="M342.825 227.621H336.528V234.193H342.825V227.621Z" fill="white"/>
<path opacity="0.2" d="M342.825 234.757H336.528V241.329H342.825V234.757Z" fill="white"/>
<path opacity="0.2" d="M342.825 241.893H336.528V248.465H342.825V241.893Z" fill="white"/>
<path opacity="0.2" d="M342.825 249.028H336.528V255.601H342.825V249.028Z" fill="white"/>
<path opacity="0.2" d="M348.873 249.028H343.365V255.601H348.873V249.028Z" fill="white"/>
<path opacity="0.2" d="M342.825 212.977H336.528V219.921H342.825V212.977Z" fill="white"/>
<path opacity="0.2" d="M329.152 256.176H322.855V263.12H329.152V256.176Z" fill="white"/>
<path opacity="0.2" d="M335.988 256.176H329.692V263.12H335.988V256.176Z" fill="white"/>
<path opacity="0.2" d="M348.873 234.757H343.365V241.329H348.873V234.757Z" fill="white"/>
<path opacity="0.2" d="M342.825 256.176H336.528V263.12H342.825V256.176Z" fill="white"/>
<path opacity="0.2" d="M348.873 241.893H343.365V248.465H348.873V241.893Z" fill="white"/>
<path opacity="0.2" d="M308.632 256.176H303.135V260.685C303.137 261.338 303.388 261.963 303.831 262.424C304.274 262.884 304.874 263.143 305.5 263.143H308.632V256.176Z" fill="white"/>
<path opacity="0.2" d="M343.365 256.175V263.109H346.507C347.133 263.109 347.733 262.85 348.176 262.389C348.619 261.929 348.87 261.304 348.873 260.651V256.142L343.365 256.175Z" fill="white"/>
<path opacity="0.2" d="M308.632 219.921V212.977H305.5C304.872 212.977 304.271 213.237 303.827 213.7C303.384 214.163 303.135 214.791 303.135 215.445V219.955L308.632 219.921Z" fill="white"/>
<path opacity="0.2" d="M348.873 227.621H343.365V234.193H348.873V227.621Z" fill="white"/>
<path opacity="0.2" d="M348.873 220.484H343.365V227.057H348.873V220.484Z" fill="white"/>
<path opacity="0.2" d="M315.468 234.757H309.172V241.329H315.468V234.757Z" fill="white"/>
<path opacity="0.2" d="M315.468 249.028H309.172V255.601H315.468V249.028Z" fill="white"/>
<path opacity="0.2" d="M322.316 212.977H316.019V219.921H322.316V212.977Z" fill="white"/>
<path opacity="0.2" d="M315.468 241.893H309.172V248.465H315.468V241.893Z" fill="white"/>
<path opacity="0.2" d="M322.316 227.621H316.019V234.193H322.316V227.621Z" fill="white"/>
<path opacity="0.2" d="M322.316 220.484H316.019V227.057H322.316V220.484Z" fill="white"/>
<path opacity="0.2" d="M322.316 256.176H316.019V263.12H322.316V256.176Z" fill="white"/>
<path opacity="0.2" d="M315.468 256.176H309.172V263.12H315.468V256.176Z" fill="white"/>
<path opacity="0.2" d="M315.468 212.977H309.172V219.921H315.468V212.977Z" fill="white"/>
<path opacity="0.2" d="M322.316 234.757H316.019V241.329H322.316V234.757Z" fill="white"/>
<path opacity="0.2" d="M315.468 227.621H309.172V234.193H315.468V227.621Z" fill="white"/>
<path opacity="0.2" d="M315.468 220.484H309.172V227.057H315.468V220.484Z" fill="white"/>
<path d="M337.187 230.484C337.093 229.97 336.96 229.465 336.787 228.973C336.112 226.965 334.934 225.182 333.376 223.81C331.818 222.437 329.937 221.524 327.927 221.167C325.917 220.809 323.852 221.019 321.946 221.775C320.04 222.532 318.363 223.806 317.088 225.467C316.484 226.249 315.979 227.109 315.587 228.026C314.918 229.567 314.572 231.239 314.572 232.93V243.167C314.57 244.144 314.686 245.117 314.917 246.064C315.085 246.788 315.328 247.491 315.641 248.161C315.914 248.787 316.239 249.387 316.613 249.953C316.905 250.359 317.196 250.742 317.509 251.08C317.894 251.525 318.309 251.94 318.751 252.321C319.113 252.629 319.492 252.915 319.885 253.177C320.566 253.629 321.29 254.007 322.045 254.305C322.413 254.44 322.78 254.564 323.125 254.665C323.599 254.787 324.078 254.882 324.562 254.947C324.92 254.995 325.281 255.021 325.642 255.026H325.933C326.523 255.027 327.111 254.981 327.694 254.891C328.061 254.823 328.428 254.744 328.774 254.654C330.101 254.292 331.356 253.685 332.478 252.862C332.885 252.567 333.271 252.243 333.634 251.892C334.626 250.944 335.452 249.823 336.075 248.578C336.399 247.937 336.663 247.265 336.863 246.571C337.163 245.559 337.327 244.508 337.349 243.448C337.349 243.448 337.349 243.212 337.349 243.099V232.863C337.373 232.066 337.318 231.269 337.187 230.484ZM334.627 249.141C334.015 250.108 333.257 250.965 332.381 251.678C332.063 251.943 331.727 252.184 331.377 252.399C330.451 252.994 329.441 253.431 328.385 253.696C328.039 253.775 327.683 253.842 327.305 253.887C326.872 253.946 326.435 253.976 325.998 253.978H325.512C325.134 253.978 324.778 253.978 324.432 253.865C323.98 253.789 323.533 253.684 323.093 253.549C322.715 253.437 322.348 253.29 322.013 253.143C321.249 252.802 320.524 252.37 319.853 251.858C319.491 251.575 319.148 251.266 318.827 250.934C318.433 250.546 318.072 250.123 317.747 249.671C317.434 249.239 317.152 248.783 316.905 248.307C316.533 247.594 316.243 246.837 316.041 246.053C315.788 245.109 315.661 244.135 315.663 243.155V232.919C315.665 230.542 316.425 228.234 317.823 226.358C318.754 225.089 319.941 224.05 321.3 223.314C322.764 222.517 324.391 222.103 326.041 222.108C328.393 222.109 330.674 222.944 332.511 224.476C334.348 226.008 335.631 228.147 336.15 230.54C336.316 231.314 336.399 232.104 336.399 232.897V243.223C336.389 243.889 336.324 244.553 336.204 245.207C336.036 246.084 335.764 246.936 335.394 247.744C335.175 248.23 334.919 248.698 334.627 249.141Z" fill="white"/>
<path d="M327.305 239.265C326.149 243.087 324.648 248.115 325.512 253.921C325.566 254.293 325.631 254.665 325.706 255.048C325.345 255.043 324.984 255.017 324.626 254.969C324.551 254.575 324.486 254.191 324.443 253.842C323.622 247.867 325.145 242.783 326.3 238.916C327.531 234.812 328.039 232.806 326.181 231.983C325.89 231.856 325.571 231.811 325.258 231.855C324.945 231.899 324.649 232.028 324.399 232.231C321.451 234.271 318.816 243.076 317.768 249.648C317.682 250.167 317.606 250.663 317.541 251.136C317.228 250.764 316.937 250.381 316.645 250.009C316.721 249.468 316.818 248.882 316.926 248.329C318.114 241.813 320.652 233.527 323.805 231.352C324.203 231.046 324.67 230.854 325.16 230.793C325.65 230.731 326.147 230.804 326.603 231.002C329.4 232.231 328.482 235.331 327.305 239.265Z" fill="white"/>
<path d="M325.425 238.995C324.345 242.614 322.758 247.912 323.071 253.549C323.071 253.944 323.071 254.338 323.157 254.744C322.779 254.643 322.412 254.519 322.077 254.383C322.077 253.966 322.023 253.56 322.013 253.143C321.797 247.507 323.363 242.253 324.443 238.657C324.861 237.47 325.165 236.243 325.35 234.993C324.043 236.211 319.95 246.131 319.874 251.903C319.853 252.37 319.871 252.838 319.928 253.301C319.535 253.039 319.156 252.752 318.794 252.444C318.794 251.982 318.794 251.486 318.848 250.979C319.302 245.004 322.747 235.996 324.626 234.215C324.764 234.044 324.947 233.919 325.153 233.857C325.359 233.795 325.578 233.798 325.782 233.866C326.851 234.26 326.343 235.94 325.425 238.995Z" fill="white"/>
<path d="M328.385 253.651C328.517 254.005 328.668 254.351 328.838 254.688C328.493 254.778 328.125 254.857 327.758 254.924C327.585 254.559 327.433 254.182 327.305 253.797C326.419 251.385 325.955 247.721 327.564 242.715C330.707 232.953 330.156 230.63 327.823 229.345C327.227 228.981 326.553 228.778 325.863 228.754C325.173 228.73 324.488 228.887 323.87 229.21C320.63 230.878 317.833 236.91 316.029 245.973C315.889 246.661 315.759 247.36 315.641 248.082C315.328 247.412 315.085 246.709 314.917 245.985C315.144 244.857 315.392 243.73 315.651 242.603C317.531 234.847 320.22 229.807 323.395 228.173C324.162 227.761 325.017 227.558 325.879 227.581C326.742 227.605 327.585 227.855 328.331 228.308C331.571 230.112 331.646 233.55 328.59 243.031C327.024 247.901 327.51 251.373 328.374 253.572L328.385 253.651Z" fill="white"/>
<path d="M333.72 251.971C333.357 252.322 332.971 252.646 332.565 252.94L332.122 252.794C331.861 252.697 331.614 252.564 331.387 252.399C330.167 251.557 329.31 250.25 329.001 248.758C328.439 246.65 329.357 243.606 330.34 240.393C331.323 237.18 332.338 233.821 331.852 231.374C331.721 230.495 331.396 229.66 330.903 228.935C330.41 228.209 329.762 227.612 329.011 227.192C327.121 226.211 324.605 226.38 321.937 227.677C319.27 228.973 316.98 233.122 315.663 236.335C315.198 237.462 314.831 238.499 314.583 239.255V236.087C314.896 235.32 315.252 234.486 315.663 233.652C317.056 230.8 319.011 227.857 321.473 226.662C324.454 225.208 327.305 225.039 329.497 226.189C330.396 226.683 331.172 227.388 331.764 228.249C332.357 229.11 332.749 230.103 332.91 231.149C333.45 233.855 332.392 237.338 331.366 240.709C330.437 243.764 329.562 246.639 330.037 248.431C330.168 249.121 330.448 249.77 330.856 250.329C331.264 250.887 331.789 251.341 332.392 251.655L332.511 251.712C332.894 251.878 333.305 251.966 333.72 251.971Z" fill="white"/>
<path d="M336.96 246.65C336.76 247.344 336.496 248.016 336.171 248.657C335.697 248.915 335.181 249.08 334.649 249.141H334.346H334.076C333.482 249.091 332.919 248.846 332.467 248.441C332.015 248.036 331.697 247.492 331.56 246.887C331.085 245.207 331.862 242.05 332.64 238.713C333.255 236.602 333.66 234.43 333.85 232.231C333.85 228.759 332.986 225.039 326.603 223.855C323.363 223.246 318.697 225.411 315.965 230.033C315.425 230.935 316.127 227.474 315.533 227.981C315.922 227.057 316.526 227.102 317.12 226.324C318.319 225.512 321.656 222.074 326.786 222.739C334.141 223.686 334.93 228.804 334.93 232.231C334.75 234.527 334.329 236.795 333.677 238.995C332.964 241.893 332.165 245.184 332.597 246.571C332.675 246.953 332.869 247.299 333.148 247.558C333.428 247.817 333.779 247.977 334.152 248.014C334.563 248.041 334.974 247.964 335.351 247.789C335.956 247.529 336.504 247.141 336.96 246.65Z" fill="white"/>
<path d="M337.435 240.517V243.166C337.435 243.279 337.435 243.403 337.435 243.515C337.435 243.628 337.435 243.515 337.435 243.515C337.145 244.18 336.713 244.766 336.172 245.229C335.798 245.511 335.348 245.662 334.887 245.657H334.573C334.41 245.636 334.254 245.573 334.12 245.472C333.986 245.372 333.878 245.238 333.807 245.082C333.321 244.147 333.925 242.253 334.325 241.204C335.729 237.858 336.343 234.208 336.118 230.562C336.118 229.92 336.183 229.525 336.183 229.503C336.196 229.355 336.263 229.219 336.369 229.12C336.475 229.022 336.613 228.969 336.755 228.973C336.927 229.464 337.061 229.969 337.155 230.483C337.155 231.318 337.025 232.152 336.949 232.986C336.798 234.587 336.615 236.188 336.323 237.777C336.247 238.206 336.593 238.037 336.507 238.465C336.242 239.313 335.925 240.141 335.556 240.945C335.297 241.565 335.005 242.174 334.8 242.817C334.671 243.2 334.195 245.004 335.167 244.609C335.532 244.412 335.836 244.111 336.042 243.741C336.139 243.583 336.237 243.425 336.323 243.256C336.638 242.644 336.905 242.007 337.122 241.351C337.252 241.08 337.349 240.799 337.435 240.517Z" fill="white"/>
<path d="M257.807 49.2983V78.0454C257.807 78.464 257.648 78.8654 257.364 79.1614C257.081 79.4574 256.696 79.6236 256.295 79.6236H228.291C228.195 79.4059 228.043 79.22 227.853 79.0867C227.662 78.9534 227.44 78.8778 227.211 78.8683C226.982 78.8567 226.755 78.91 226.553 79.0226C226.351 79.1351 226.183 79.3028 226.065 79.5076C225.947 79.7123 225.885 79.9466 225.885 80.1854C225.885 80.4242 225.947 80.6585 226.065 80.8634C226.182 81.0682 226.351 81.2359 226.553 81.3486C226.754 81.4613 226.981 81.5147 227.21 81.5032C227.438 81.4917 227.66 81.4156 227.85 81.2831C228.04 81.1506 228.193 80.9667 228.291 80.751H256.295C256.982 80.748 257.639 80.462 258.125 79.9553C258.61 79.4485 258.884 78.762 258.887 78.0454V49.2983H257.807Z" fill="#1D6E71"/>
<path opacity="0.4" d="M257.807 49.2983V78.0454C257.807 78.464 257.648 78.8654 257.364 79.1614C257.081 79.4574 256.696 79.6236 256.295 79.6236H228.291C228.195 79.4059 228.043 79.22 227.853 79.0867C227.662 78.9534 227.44 78.8778 227.211 78.8683C226.982 78.8567 226.755 78.91 226.553 79.0226C226.351 79.1351 226.183 79.3028 226.065 79.5076C225.947 79.7123 225.885 79.9466 225.885 80.1854C225.885 80.4242 225.947 80.6585 226.065 80.8634C226.182 81.0682 226.351 81.2359 226.553 81.3486C226.754 81.4613 226.981 81.5147 227.21 81.5032C227.438 81.4917 227.66 81.4156 227.85 81.2831C228.04 81.1506 228.193 80.9667 228.291 80.751H256.295C256.982 80.748 257.639 80.462 258.125 79.9553C258.61 79.4485 258.884 78.762 258.887 78.0454V49.2983H257.807Z" fill="white"/>
<path d="M282.895 55.2168V12.4119C282.895 10.7371 281.595 9.37939 279.99 9.37939L236.693 9.37939C235.088 9.37939 233.788 10.7371 233.788 12.4119V55.2168C233.788 56.8917 235.088 58.2494 236.693 58.2494L279.99 58.2494C281.595 58.2494 282.895 56.8917 282.895 55.2168Z" fill="#1D6E71"/>
<path opacity="0.4" d="M282.895 55.2168V12.4119C282.895 10.7371 281.595 9.37939 279.99 9.37939L236.693 9.37939C235.088 9.37939 233.788 10.7371 233.788 12.4119V55.2168C233.788 56.8917 235.088 58.2494 236.693 58.2494L279.99 58.2494C281.595 58.2494 282.895 56.8917 282.895 55.2168Z" fill="white"/>
<path opacity="0.2" d="M254.653 30.5283H248.357V37.1007H254.653V30.5283Z" fill="white"/>
<path opacity="0.2" d="M275.162 37.6641H268.866V44.2364H275.162V37.6641Z" fill="white"/>
<path opacity="0.2" d="M247.817 23.3809H241.521V29.9532H247.817V23.3809Z" fill="white"/>
<path opacity="0.2" d="M268.326 37.6641H262.03V44.2364H268.326V37.6641Z" fill="white"/>
<path opacity="0.2" d="M261.49 37.6641H255.193V44.2364H261.49V37.6641Z" fill="white"/>
<path opacity="0.2" d="M268.326 30.5283H262.03V37.1007H268.326V30.5283Z" fill="white"/>
<path opacity="0.2" d="M282.366 30.5283H275.714V37.1007H282.366V30.5283Z" fill="white"/>
<path opacity="0.2" d="M254.653 23.3809H248.357V29.9532H254.653V23.3809Z" fill="white"/>
<path opacity="0.2" d="M275.162 30.5283H268.866V37.1007H275.162V30.5283Z" fill="white"/>
<path opacity="0.2" d="M247.817 30.5283H241.521V37.1007H247.817V30.5283Z" fill="white"/>
<path opacity="0.2" d="M247.817 37.6641H241.521V44.2364H247.817V37.6641Z" fill="white"/>
<path opacity="0.2" d="M261.49 30.5283H255.193V37.1007H261.49V30.5283Z" fill="white"/>
<path opacity="0.2" d="M282.366 37.6641H275.714V44.2364H282.366V37.6641Z" fill="white"/>
<path opacity="0.2" d="M254.653 9.94385H248.357V15.6933H254.653V9.94385Z" fill="white"/>
<path opacity="0.2" d="M275.162 9.94385H268.866V15.6933H275.162V9.94385Z" fill="white"/>
<path opacity="0.2" d="M261.49 9.94385H255.193V15.6933H261.49V9.94385Z" fill="white"/>
<path opacity="0.2" d="M268.326 9.94385H262.03V15.6933H268.326V9.94385Z" fill="white"/>
<path opacity="0.2" d="M254.653 37.6641H248.357V44.2364H254.653V37.6641Z" fill="white"/>
<path opacity="0.2" d="M275.714 51.936V57.6854H280.034C280.659 57.6825 281.258 57.421 281.699 56.9584C282.14 56.4957 282.388 55.8694 282.388 55.2166V51.936H275.714Z" fill="white"/>
<path opacity="0.2" d="M275.162 44.8003H268.866V51.3727H275.162V44.8003Z" fill="white"/>
<path opacity="0.2" d="M247.817 9.94385H241.521V15.6933H247.817V9.94385Z" fill="white"/>
<path opacity="0.2" d="M268.326 44.8003H262.03V51.3727H268.326V44.8003Z" fill="white"/>
<path opacity="0.2" d="M261.49 44.8003H255.193V51.3727H261.49V44.8003Z" fill="white"/>
<path opacity="0.2" d="M254.653 44.8003H248.357V51.3727H254.653V44.8003Z" fill="white"/>
<path opacity="0.2" d="M247.817 44.8003H241.521V51.3727H247.817V44.8003Z" fill="white"/>
<path opacity="0.2" d="M247.817 51.936H241.521V57.6854H247.817V51.936Z" fill="white"/>
<path opacity="0.2" d="M282.366 44.8003H275.714V51.3727H282.366V44.8003Z" fill="white"/>
<path opacity="0.2" d="M240.981 30.5283H234.328V37.1007H240.981V30.5283Z" fill="white"/>
<path opacity="0.2" d="M240.981 37.6641H234.328V44.2364H240.981V37.6641Z" fill="white"/>
<path opacity="0.2" d="M261.49 51.936H255.193V57.6854H261.49V51.936Z" fill="white"/>
<path opacity="0.2" d="M240.981 44.8003H234.328V51.3727H240.981V44.8003Z" fill="white"/>
<path opacity="0.2" d="M254.653 51.936H248.357V57.6854H254.653V51.936Z" fill="white"/>
<path opacity="0.2" d="M240.981 15.682V9.94385H236.661C236.046 9.96141 235.463 10.2277 235.034 10.6864C234.604 11.1451 234.363 11.7602 234.36 12.4014V15.682H240.981Z" fill="white"/>
<path opacity="0.2" d="M240.981 51.936H234.36V55.2391C234.36 55.8939 234.609 56.5219 235.053 56.9849C235.496 57.4479 236.098 57.708 236.725 57.708H241.045L240.981 51.936Z" fill="white"/>
<path opacity="0.2" d="M275.714 15.682H282.356V12.4014C282.353 11.7506 282.104 11.1272 281.663 10.6669C281.222 10.2067 280.625 9.94681 280.001 9.94385H275.681L275.714 15.682Z" fill="white"/>
<path opacity="0.2" d="M268.326 51.936H262.03V57.6854H268.326V51.936Z" fill="white"/>
<path opacity="0.2" d="M275.162 51.936H268.866V57.6854H275.162V51.936Z" fill="white"/>
<path opacity="0.2" d="M261.49 16.2446H255.193V22.817H261.49V16.2446Z" fill="white"/>
<path opacity="0.2" d="M247.817 16.2446H241.521V22.817H247.817V16.2446Z" fill="white"/>
<path opacity="0.2" d="M282.366 23.3809H275.714V29.9532H282.366V23.3809Z" fill="white"/>
<path opacity="0.2" d="M254.653 16.2446H248.357V22.817H254.653V16.2446Z" fill="white"/>
<path opacity="0.2" d="M268.326 23.3809H262.03V29.9532H268.326V23.3809Z" fill="white"/>
<path opacity="0.2" d="M275.162 23.3809H268.866V29.9532H275.162V23.3809Z" fill="white"/>
<path opacity="0.2" d="M240.981 23.3809H234.328V29.9532H240.981V23.3809Z" fill="white"/>
<path opacity="0.2" d="M240.981 16.2446H234.328V22.817H240.981V16.2446Z" fill="white"/>
<path opacity="0.2" d="M282.366 16.2446H275.714V22.817H282.366V16.2446Z" fill="white"/>
<path opacity="0.2" d="M261.49 23.3809H255.193V29.9532H261.49V23.3809Z" fill="white"/>
<path opacity="0.2" d="M268.326 16.2446H262.03V22.817H268.326V16.2446Z" fill="white"/>
<path opacity="0.2" d="M275.162 16.2446H268.866V22.817H275.162V16.2446Z" fill="white"/>
<path d="M244.08 33.6057C244.08 33.6057 250.452 41.497 258.326 41.497C266.199 41.497 272.56 33.6057 272.56 33.6057C272.56 33.6057 266.188 25.7144 258.326 25.7144C250.463 25.7144 244.08 33.6057 244.08 33.6057Z" stroke="white" stroke-linecap="round" stroke-linejoin="round"/>
<path d="M263.304 32.4787C263.306 33.5053 263.016 34.5094 262.471 35.364C261.926 36.2185 261.15 36.8849 260.242 37.2788C259.334 37.6727 258.334 37.7763 257.369 37.5766C256.405 37.3768 255.518 36.8827 254.823 36.1568C254.128 35.4309 253.654 34.5059 253.463 33.4989C253.272 32.4919 253.371 31.4483 253.748 30.5002C254.126 29.5522 254.764 28.7424 255.583 28.1735C256.401 27.6045 257.363 27.302 258.347 27.3042C259.661 27.3042 260.922 27.8494 261.852 28.8198C262.782 29.7902 263.304 31.1063 263.304 32.4787V32.4787Z" stroke="white" stroke-miterlimit="10"/>
<path d="M258.898 30.2013C258.896 29.8686 258.988 29.5427 259.164 29.265C259.339 28.9873 259.59 28.7702 259.884 28.6414C260.177 28.5125 260.501 28.4776 260.814 28.5412C261.127 28.6047 261.415 28.7638 261.641 28.9982C261.867 29.2327 262.021 29.532 262.084 29.8581C262.147 30.1843 262.116 30.5226 261.995 30.8302C261.873 31.1377 261.667 31.4008 261.402 31.5858C261.137 31.7709 260.826 31.8697 260.507 31.8697C260.082 31.8697 259.674 31.6943 259.373 31.3817C259.071 31.0691 258.901 30.6448 258.898 30.2013Z" stroke="white" stroke-miterlimit="10"/>
<path d="M258.347 25.7033V20.4048" stroke="white" stroke-linecap="round" stroke-linejoin="round"/>
<path d="M262.764 26.0862L264.579 21.7798" stroke="white" stroke-linecap="round" stroke-linejoin="round"/>
<path d="M267.009 28.0481L269.547 24.9028" stroke="white" stroke-linecap="round" stroke-linejoin="round"/>
<path d="M270.411 30.4718L272.862 28.7695" stroke="white" stroke-linecap="round" stroke-linejoin="round"/>
<path d="M253.919 26.0862L252.104 21.7798" stroke="white" stroke-linecap="round" stroke-linejoin="round"/>
<path d="M249.674 28.0481L247.136 24.9028" stroke="white" stroke-linecap="round" stroke-linejoin="round"/>
<path d="M246.273 30.4718L243.821 28.7695" stroke="white" stroke-linecap="round" stroke-linejoin="round"/>
<path d="M184.939 81.4048C184.712 81.4122 184.491 81.4844 184.301 81.6136C184.11 81.7428 183.958 81.924 183.859 82.1376H155.142C154.455 82.1405 153.798 82.4266 153.312 82.9333C152.827 83.4401 152.553 84.1265 152.55 84.8432V115.608C152.55 116.027 152.391 116.428 152.107 116.724C151.823 117.02 151.439 117.186 151.038 117.186H139.503V118.314H151.038C151.724 118.311 152.382 118.025 152.867 117.518C153.353 117.011 153.627 116.325 153.63 115.608V84.8432C153.63 84.4246 153.789 84.0232 154.073 83.7272C154.356 83.4312 154.741 83.2649 155.142 83.2649H183.794C183.888 83.4815 184.035 83.6678 184.222 83.8041C184.408 83.9403 184.626 84.0215 184.853 84.0391C185.08 84.0567 185.307 84.01 185.511 83.904C185.714 83.798 185.887 83.6365 186.01 83.4367C186.133 83.2368 186.202 83.0061 186.209 82.7687C186.217 82.5313 186.163 82.2962 186.054 82.0881C185.944 81.88 185.783 81.7067 185.586 81.5864C185.39 81.4661 185.167 81.4034 184.939 81.4048Z" fill="#1D6E71"/>
<path opacity="0.4" d="M184.939 81.4048C184.712 81.4122 184.491 81.4844 184.301 81.6136C184.11 81.7428 183.958 81.924 183.859 82.1376H155.142C154.455 82.1405 153.798 82.4266 153.312 82.9333C152.827 83.4401 152.553 84.1265 152.55 84.8432V115.608C152.55 116.027 152.391 116.428 152.107 116.724C151.823 117.02 151.439 117.186 151.038 117.186H139.503V118.314H151.038C151.724 118.311 152.382 118.025 152.867 117.518C153.353 117.011 153.627 116.325 153.63 115.608V84.8432C153.63 84.4246 153.789 84.0232 154.073 83.7272C154.356 83.4312 154.741 83.2649 155.142 83.2649H183.794C183.888 83.4815 184.035 83.6678 184.222 83.8041C184.408 83.9403 184.626 84.0215 184.853 84.0391C185.08 84.0567 185.307 84.01 185.511 83.904C185.714 83.798 185.887 83.6365 186.01 83.4367C186.133 83.2368 186.202 83.0061 186.209 82.7687C186.217 82.5313 186.163 82.2962 186.054 82.0881C185.944 81.88 185.783 81.7067 185.586 81.5864C185.39 81.4661 185.167 81.4034 184.939 81.4048Z" fill="white"/>
<path d="M136.599 92.1143H95.591C93.9865 92.1143 92.6858 93.472 92.6858 95.1468V140.342C92.6858 142.016 93.9865 143.374 95.591 143.374H136.599C138.203 143.374 139.504 142.016 139.504 140.342V95.1468C139.504 93.472 138.203 92.1143 136.599 92.1143Z" fill="#1D6E71"/>
<path opacity="0.4" d="M136.599 92.1143H95.591C93.9865 92.1143 92.6858 93.472 92.6858 95.1468V140.342C92.6858 142.016 93.9865 143.374 95.591 143.374H136.599C138.203 143.374 139.504 142.016 139.504 140.342V95.1468C139.504 93.472 138.203 92.1143 136.599 92.1143Z" fill="white"/>
<path opacity="0.2" d="M119.243 121.594H112.946V128.167H119.243V121.594Z" fill="white"/>
<path opacity="0.2" d="M126.079 100.186H119.783V106.758H126.079V100.186Z" fill="white"/>
<path opacity="0.2" d="M112.396 128.742H106.099V135.314H112.396V128.742Z" fill="white"/>
<path opacity="0.2" d="M126.079 107.322H119.783V113.895H126.079V107.322Z" fill="white"/>
<path opacity="0.2" d="M126.079 114.458H119.783V121.031H126.079V114.458Z" fill="white"/>
<path opacity="0.2" d="M119.243 107.322H112.946V113.895H119.243V107.322Z" fill="white"/>
<path opacity="0.2" d="M119.243 92.6782H112.946V99.6226H119.243V92.6782Z" fill="white"/>
<path opacity="0.2" d="M112.396 121.594H106.099V128.167H112.396V121.594Z" fill="white"/>
<path opacity="0.2" d="M119.243 100.186H112.946V106.758H119.243V100.186Z" fill="white"/>
<path opacity="0.2" d="M119.243 128.742H112.946V135.314H119.243V128.742Z" fill="white"/>
<path opacity="0.2" d="M126.079 128.742H119.783V135.314H126.079V128.742Z" fill="white"/>
<path opacity="0.2" d="M119.243 114.458H112.946V121.031H119.243V114.458Z" fill="white"/>
<path opacity="0.2" d="M126.079 92.6782H119.783V99.6226H126.079V92.6782Z" fill="white"/>
<path opacity="0.2" d="M98.7333 121.594H93.2253V128.167H98.7333V121.594Z" fill="white"/>
<path opacity="0.2" d="M98.7333 100.186H93.2253V106.758H98.7333V100.186Z" fill="white"/>
<path opacity="0.2" d="M98.7333 114.458H93.2253V121.031H98.7333V114.458Z" fill="white"/>
<path opacity="0.2" d="M98.7333 107.322H93.2253V113.895H98.7333V107.322Z" fill="white"/>
<path opacity="0.2" d="M126.079 121.594H119.783V128.167H126.079V121.594Z" fill="white"/>
<path opacity="0.2" d="M133.456 99.6227H138.964V95.1134C138.964 94.4586 138.714 93.8307 138.271 93.3677C137.827 92.9047 137.226 92.6445 136.598 92.6445H133.456V99.6227Z" fill="white"/>
<path opacity="0.2" d="M132.916 100.186H126.619V106.758H132.916V100.186Z" fill="white"/>
<path opacity="0.2" d="M98.7333 128.742H93.2253V135.314H98.7333V128.742Z" fill="white"/>
<path opacity="0.2" d="M132.916 107.322H126.619V113.895H132.916V107.322Z" fill="white"/>
<path opacity="0.2" d="M132.916 114.458H126.619V121.031H132.916V114.458Z" fill="white"/>
<path opacity="0.2" d="M132.916 121.594H126.619V128.167H132.916V121.594Z" fill="white"/>
<path opacity="0.2" d="M132.916 128.742H126.619V135.314H132.916V128.742Z" fill="white"/>
<path opacity="0.2" d="M138.964 128.742H133.456V135.314H138.964V128.742Z" fill="white"/>
<path opacity="0.2" d="M132.916 92.6782H126.619V99.6226H132.916V92.6782Z" fill="white"/>
<path opacity="0.2" d="M119.243 135.877H112.946V142.822H119.243V135.877Z" fill="white"/>
<path opacity="0.2" d="M126.079 135.877H119.783V142.822H126.079V135.877Z" fill="white"/>
<path opacity="0.2" d="M138.964 114.458H133.456V121.031H138.964V114.458Z" fill="white"/>
<path opacity="0.2" d="M132.916 135.877H126.619V142.822H132.916V135.877Z" fill="white"/>
<path opacity="0.2" d="M138.964 121.594H133.456V128.167H138.964V121.594Z" fill="white"/>
<path opacity="0.2" d="M98.7225 135.877H93.2253V140.387C93.2282 141.038 93.4771 141.661 93.9181 142.121C94.359 142.582 94.9562 142.841 95.5797 142.844H98.7225V135.877Z" fill="white"/>
<path opacity="0.2" d="M133.456 135.878V142.811H136.598C137.224 142.811 137.824 142.552 138.267 142.092C138.71 141.631 138.961 141.006 138.964 140.353V135.844L133.456 135.878Z" fill="white"/>
<path opacity="0.2" d="M98.7225 99.6226V92.6782H95.5797C94.9543 92.6812 94.3555 92.9426 93.9143 93.4053C93.473 93.868 93.2253 94.4942 93.2253 95.1471V99.6564L98.7225 99.6226Z" fill="white"/>
<path opacity="0.2" d="M138.964 107.322H133.456V113.895H138.964V107.322Z" fill="white"/>
<path opacity="0.2" d="M138.964 100.186H133.456V106.758H138.964V100.186Z" fill="white"/>
<path opacity="0.2" d="M105.56 114.458H99.2632V121.031H105.56V114.458Z" fill="white"/>
<path opacity="0.2" d="M105.56 128.742H99.2632V135.314H105.56V128.742Z" fill="white"/>
<path opacity="0.2" d="M112.396 92.6782H106.099V99.6226H112.396V92.6782Z" fill="white"/>
<path opacity="0.2" d="M105.56 121.594H99.2632V128.167H105.56V121.594Z" fill="white"/>
<path opacity="0.2" d="M112.396 107.322H106.099V113.895H112.396V107.322Z" fill="white"/>
<path opacity="0.2" d="M112.396 100.186H106.099V106.758H112.396V100.186Z" fill="white"/>
<path opacity="0.2" d="M112.396 135.877H106.099V142.822H112.396V135.877Z" fill="white"/>
<path opacity="0.2" d="M105.56 135.877H99.2632V142.822H105.56V135.877Z" fill="white"/>
<path opacity="0.2" d="M105.56 92.6782H99.2632V99.6226H105.56V92.6782Z" fill="white"/>
<path opacity="0.2" d="M112.396 114.458H106.099V121.031H112.396V114.458Z" fill="white"/>
<path opacity="0.2" d="M105.56 107.322H99.2632V113.895H105.56V107.322Z" fill="white"/>
<path opacity="0.2" d="M105.56 100.186H99.2632V106.758H105.56V100.186Z" fill="white"/>
<path d="M116.089 134.807C113.058 134.804 110.153 133.546 108.009 131.311C105.865 129.075 104.658 126.043 104.652 122.879V112.621C104.652 109.454 105.857 106.418 108.002 104.179C110.147 101.94 113.056 100.682 116.089 100.682C119.122 100.682 122.031 101.94 124.176 104.179C126.321 106.418 127.526 109.454 127.526 112.621V122.879C127.521 126.043 126.313 129.075 124.169 131.311C122.025 133.546 119.12 134.804 116.089 134.807ZM116.089 101.821C113.345 101.824 110.714 102.962 108.772 104.987C106.831 107.011 105.738 109.756 105.732 112.621V122.879C105.732 125.747 106.823 128.497 108.765 130.524C110.708 132.551 113.342 133.691 116.089 133.691C118.836 133.691 121.47 132.551 123.413 130.524C125.355 128.497 126.446 125.747 126.446 122.879V112.621C126.441 109.756 125.347 107.011 123.406 104.987C121.464 102.962 118.833 101.824 116.089 101.821Z" fill="white"/>
<path d="M121.252 116.352C121.92 116.352 122.461 115.585 122.461 114.638C122.461 113.692 121.92 112.925 121.252 112.925C120.584 112.925 120.042 113.692 120.042 114.638C120.042 115.585 120.584 116.352 121.252 116.352Z" fill="white"/>
<path d="M112.136 114.638C112.136 115.574 111.596 116.341 110.927 116.341C110.257 116.341 109.717 115.574 109.717 114.638C109.717 113.703 110.257 112.925 110.927 112.925C111.596 112.925 112.136 113.691 112.136 114.638Z" fill="white"/>
<path d="M116.154 116.341L113.875 122.44H116.154V116.341Z" fill="white"/>
<path d="M115.679 126.667C114.649 126.724 113.619 126.555 112.655 126.171L113.119 125.157L112.882 125.664L113.119 125.157C113.119 125.157 115.053 126.047 119.178 125.157L119.405 126.284C118.179 126.549 116.931 126.677 115.679 126.667Z" fill="white"/>
<path d="M429.818 17.2368H312.152C309.092 17.2368 306.612 19.8261 306.612 23.02V145.843C306.612 149.037 309.092 151.626 312.152 151.626H429.818C432.878 151.626 435.359 149.037 435.359 145.843V23.02C435.359 19.8261 432.878 17.2368 429.818 17.2368Z" fill="#1D6E71"/>
<path opacity="0.5" d="M416.502 100.074H325.469C322.707 100.074 320.468 102.411 320.468 105.293V122.677C320.468 125.559 322.707 127.896 325.469 127.896H416.502C419.263 127.896 421.502 125.559 421.502 122.677V105.293C421.502 102.411 419.263 100.074 416.502 100.074Z" fill="white"/>
<path d="M338.526 113.996L341.474 115.665L340.2 117.976L337.165 116.116L337.219 119.498H334.681V116.048L331.7 117.908L330.48 115.665L333.428 113.996L330.48 112.305L331.776 109.983L334.757 111.854V108.405H337.295L337.241 111.854L340.221 109.983L341.55 112.305L338.526 113.996Z" fill="white"/>
<path d="M356.033 113.996L358.981 115.665L357.664 117.976L354.683 116.116V119.498H352.145V116.048L349.175 117.908L347.868 115.597L350.817 113.928L347.868 112.237L349.175 109.915L352.145 111.787V108.337H354.683V111.787L357.664 109.915L358.981 112.237L356.033 113.996Z" fill="white"/>
<path d="M373.551 113.996L376.499 115.665L375.171 117.976L372.201 116.116L372.255 119.498H369.706V116.048L366.725 117.908L365.429 115.597L368.377 113.928L365.429 112.237L366.725 109.915L369.706 111.787V108.337H372.255L372.201 111.787L375.171 109.915L376.499 112.237L373.551 113.996Z" fill="white"/>
<path d="M391.068 113.996L394.016 115.665L392.688 117.976L389.707 116.116L389.761 119.498H387.223V116.048L384.253 117.908L382.957 115.597L385.905 113.928L382.957 112.237L384.253 109.915L387.223 111.787V108.337H389.761L389.707 111.787L392.688 109.915L394.016 112.237L391.068 113.996Z" fill="white"/>
<path d="M408.575 113.996L411.48 115.665L410.163 117.976L407.225 116.116L407.279 119.498H404.741V116.048L401.76 117.976L400.453 115.665L403.402 113.996L400.453 112.305L401.76 109.983L404.73 111.854V108.405H407.268L407.214 111.854L410.195 109.983L411.513 112.305L408.575 113.996Z" fill="white"/>
<path opacity="0.5" d="M391.392 80.128C402.666 68.3601 402.666 49.2805 391.392 37.5126C380.118 25.7447 361.84 25.7447 350.566 37.5126C339.292 49.2805 339.292 68.3601 350.566 80.128C361.84 91.896 380.118 91.896 391.392 80.128Z" fill="white"/>
<path d="M382.32 57.1333H359.748C359.34 57.1318 358.937 57.2145 358.56 57.3766C358.183 57.5386 357.841 57.7769 357.553 58.0776C357.265 58.3784 357.036 58.7356 356.881 59.1289C356.726 59.5221 356.647 59.9435 356.648 60.3688V74.7197C356.648 75.5778 356.975 76.4008 357.556 77.0076C358.137 77.6143 358.926 77.9552 359.748 77.9552H382.32C383.142 77.9552 383.93 77.6143 384.512 77.0076C385.093 76.4008 385.419 75.5778 385.419 74.7197V60.3688C385.421 59.9435 385.342 59.5221 385.186 59.1289C385.031 58.7356 384.803 58.3784 384.515 58.0776C384.227 57.7769 383.884 57.5386 383.508 57.3766C383.131 57.2145 382.727 57.1318 382.32 57.1333ZM373.107 73.1077H368.96L369.824 67.2342C369.268 66.9491 368.821 66.4757 368.555 65.8914C368.29 65.307 368.222 64.6461 368.362 64.0161C368.502 63.3861 368.842 62.8243 369.328 62.422C369.813 62.0197 370.414 61.8008 371.034 61.8008C371.653 61.8008 372.255 62.0197 372.74 62.422C373.225 62.8243 373.566 63.3861 373.706 64.0161C373.846 64.6461 373.778 65.307 373.512 65.8914C373.247 66.4757 372.8 66.9491 372.243 67.2342L373.107 73.1077Z" fill="#1D6E71"/>
<path d="M364.478 54.8337L364.057 52.5791C363.695 50.691 364.066 48.7299 365.089 47.1274C366.111 45.5249 367.702 44.4121 369.511 44.0339C371.32 43.6557 373.199 44.043 374.734 45.1106C376.269 46.1783 377.335 47.8388 377.697 49.7269L378.119 51.9252L382.104 51.091L381.672 48.8363C381.413 47.3314 380.869 45.8955 380.072 44.6127C379.275 43.3299 378.24 42.2259 377.03 41.3653C375.819 40.5047 374.456 39.9049 373.02 39.6008C371.585 39.2967 370.105 39.2945 368.669 39.5944C367.233 39.8943 365.868 40.4901 364.655 41.3472C363.442 42.2042 362.405 43.3051 361.604 44.5856C360.804 45.8661 360.256 47.3004 359.993 48.8045C359.73 50.3087 359.756 51.8525 360.072 53.3457L360.493 55.6003L364.478 54.8337Z" fill="#1D6E71"/>
<path opacity="0.2" d="M387.072 137.918H354.888C354.51 137.918 354.147 137.762 353.88 137.483C353.613 137.204 353.462 136.825 353.462 136.43C353.465 136.038 353.617 135.662 353.884 135.385C354.151 135.109 354.512 134.954 354.888 134.954H387.072C387.448 134.954 387.809 135.109 388.076 135.385C388.343 135.662 388.495 136.038 388.498 136.43C388.498 136.825 388.347 137.204 388.08 137.483C387.813 137.762 387.45 137.918 387.072 137.918Z" fill="black"/>
<path d="M280.465 137.298L291.525 127.49C291.525 127.49 300.942 117.074 302.929 116.848C304.917 116.623 309.204 117.513 310.338 119.001C311.472 120.489 302.973 130.162 300.975 131.943C298.977 133.724 294.991 133.431 294.991 133.431L284.451 144.062L280.465 137.298Z" fill="#EBB376"/>
<path d="M195.145 399.2H184.453C184.28 399.205 184.113 399.27 183.978 399.384C183.843 399.498 183.748 399.656 183.708 399.832L181.969 408.016C181.899 408.369 181.965 408.736 182.153 409.038C182.341 409.34 182.636 409.553 182.974 409.628H183.254C186.71 409.572 189.238 409.346 193.579 409.346C196.258 409.346 204.325 409.64 208.019 409.64C211.712 409.64 212.198 405.829 210.686 405.48C203.904 403.935 198.806 401.805 196.646 399.764C196.233 399.383 195.696 399.181 195.145 399.2Z" fill="#263238"/>
<path d="M240.484 398.919H229.792C229.617 398.92 229.448 398.983 229.313 399.098C229.177 399.212 229.083 399.372 229.046 399.55L227.308 407.723C227.237 408.076 227.303 408.443 227.491 408.745C227.68 409.047 227.975 409.259 228.312 409.335H228.593C232.06 409.279 234.576 409.053 238.918 409.053C241.596 409.053 249.664 409.347 253.357 409.347C257.051 409.347 257.537 405.536 256.025 405.187C249.242 403.642 244.145 401.512 241.985 399.471C241.57 399.094 241.033 398.897 240.484 398.919Z" fill="#263238"/>
<path d="M189.475 192.346H236.185C240.624 217.654 253.325 320.107 243.356 399.922L227.761 401.703C227.761 401.703 230.202 279.049 216.248 239.874C214.639 260.843 212.727 283.141 211.075 295.012C207.014 324.233 197.856 400.362 197.856 400.362L182.045 400.813C182.045 400.813 185.511 326.961 187.023 298.225C188.697 267.077 189.41 198.738 189.475 192.346Z" fill="#263238"/>
<path opacity="0.2" d="M189.475 192.346H236.185C240.624 217.654 253.325 320.107 243.356 399.922L227.761 401.703C227.761 401.703 230.202 279.049 216.248 239.874C214.639 260.843 212.727 283.141 211.075 295.012C207.014 324.233 197.856 400.362 197.856 400.362L182.045 400.813C182.045 400.813 185.511 326.961 187.023 298.225C188.697 267.077 189.41 198.738 189.475 192.346Z" fill="white"/>
<path opacity="0.2" d="M216.249 239.875C218.546 246.742 220.291 253.797 221.465 260.967C222.772 242.31 217.545 222.525 217.545 222.525L216.249 239.875Z" fill="black"/>
<path d="M231.919 107.987C239.296 108.923 253.822 143.927 259.373 147.049C264.924 150.172 286.934 130.545 286.934 130.545L292.486 137.681C292.486 137.681 267.494 165.56 257.666 162.483C247.838 159.405 233.906 133.048 229.684 124.796C225.461 116.544 231.919 107.987 231.919 107.987Z" fill="#1D6E71"/>
<path opacity="0.5" d="M292.486 137.682C292.486 137.682 267.495 165.549 257.667 162.483C253.347 161.119 248.314 155.336 243.627 148.572C238.518 140.958 233.865 133.021 229.695 124.807C228.784 122.926 228.29 120.855 228.248 118.748C228.207 116.641 228.62 114.551 229.457 112.632C230.088 110.994 230.919 109.448 231.93 108.033C239.307 108.968 253.833 143.983 259.384 147.106C264.935 150.229 286.945 130.602 286.945 130.602L292.486 137.682Z" fill="white"/>
<path opacity="0.2" d="M243.616 148.515C238.507 140.901 233.854 132.965 229.684 124.751C228.773 122.87 228.279 120.799 228.238 118.692C228.197 116.584 228.61 114.494 229.446 112.576C233.647 117.976 242.19 130.94 243.616 148.515Z" fill="black"/>
<path d="M231.919 107.987C231.919 107.987 202.208 106.522 180.079 112.35C180.079 112.35 188.373 179.438 188.006 208.658L240.926 205.682C240.926 205.682 239.641 138.132 231.919 107.987Z" fill="#1D6E71"/>
<path opacity="0.6" d="M188.006 208.658C188.179 195.074 186.473 173.305 184.604 153.892C183.891 146.486 183.157 139.417 182.444 133.285C181.094 120.94 180.036 112.361 180.036 112.361C202.165 106.533 231.876 107.999 231.876 107.999C239.598 138.144 240.937 205.693 240.937 205.693L188.006 208.658Z" fill="white"/>
<path opacity="0.2" d="M184.604 153.881C183.891 146.475 183.157 139.406 182.444 133.274L185.846 130.545C185.846 130.545 188.848 142.766 184.604 153.881Z" fill="black"/>
<path opacity="0.2" d="M231.531 180.374L228.625 180.52L220.741 180.904L215.903 181.14L205.827 181.636C205.827 181.636 205.827 181.118 205.773 180.171C205.686 178.13 205.513 174.094 205.222 169.01C205.017 165.222 204.736 160.848 204.39 156.271C204.142 153.115 203.872 149.868 203.559 146.655C203.094 141.886 202.554 137.174 201.917 132.935C201.582 130.681 201.215 128.528 200.837 126.589L225.904 124.886C225.904 124.886 226.228 126.543 226.714 129.396C227.038 131.267 227.427 133.657 227.848 136.453C230.107 150.979 231.338 165.659 231.531 180.374Z" fill="black"/>
<path opacity="0.2" d="M220.741 180.926L215.903 181.163C219.348 172.02 220.698 159.134 218.387 155.121C215.255 149.687 211.41 160.104 208.667 172.595C208.152 175.29 207.163 177.863 205.751 180.182C205.664 178.141 205.492 174.105 205.2 169.021C206.746 166.343 207.913 163.446 208.667 160.42C212.522 146.294 215.946 143.769 220.352 147.478C224.413 150.871 225.601 167.33 220.741 180.926Z" fill="black"/>
<path opacity="0.2" d="M228.625 180.543C229.608 168.559 228.096 148.368 224.726 142.157C220.871 135.032 212.36 134.874 208.267 147.794C207.369 150.809 206.063 153.674 204.39 156.305C204.142 153.148 203.872 149.902 203.558 146.689C204.71 145.184 205.74 143.581 206.636 141.898C211.302 133.273 218.516 129.26 225.644 134.277C226.477 134.9 227.207 135.662 227.804 136.531C230.075 151.03 231.32 165.684 231.53 180.374L228.625 180.543Z" fill="black"/>
<path opacity="0.2" d="M226.703 129.441C221.098 125.022 213.527 126.216 208.689 130.399C206.841 132.144 204.406 133.056 201.917 132.935C201.582 130.681 201.215 128.528 200.837 126.589L225.904 124.886C225.904 124.886 226.217 126.543 226.703 129.441Z" fill="black"/>
<path d="M197.424 110.028C201.69 114.075 212.144 112.576 212.144 112.576C212.144 112.576 218.624 110.716 217.296 108.585C213.451 107.92 211.594 106.048 210.816 103.658C210.389 102.173 210.256 100.611 210.427 99.0702C210.488 98.2114 210.596 97.357 210.751 96.5111L197.791 86.5229C199.53 93.1179 201.604 105.248 197.424 110.028Z" fill="#EBB376"/>
<path opacity="0.2" d="M200.815 92.8701C201.334 100.964 207.706 103.196 210.827 103.659C210.399 102.173 210.267 100.612 210.438 99.0705L200.815 92.8701Z" fill="black"/>
<path d="M219.704 65.5547C219.704 65.5547 223.311 77.7299 217.663 83.5131C212.015 89.2964 208.688 66.1071 208.688 66.1071L219.704 65.5547Z" fill="#263238"/>
<path d="M200.697 96.2858C202.318 98.1308 204.475 99.3685 206.836 99.8085C209.197 100.249 211.632 99.8663 213.764 98.7208C216.554 97.2993 218.717 94.8191 219.812 91.7877C219.967 91.3667 220.1 90.9378 220.212 90.5025C222.232 82.4083 221.292 68.9366 212.879 65.1488C211.021 64.3053 208.987 63.972 206.97 64.1806C204.954 64.3891 203.022 65.1326 201.358 66.3403C199.695 67.5481 198.355 69.1799 197.466 71.0807C196.577 72.9815 196.168 75.088 196.279 77.2C196.614 86.2412 196.398 91.5848 200.697 96.2858Z" fill="#EBB376"/>
<path d="M209.39 80.0407C209.326 80.7622 209.736 81.3822 210.2 81.3822C210.665 81.3822 211.043 80.796 211.064 80.0632C211.086 79.3304 210.708 78.7217 210.254 78.7217C209.801 78.7217 209.412 79.2628 209.39 80.0407Z" fill="#263238"/>
<path d="M217.371 80.1759C217.306 80.8974 217.728 81.5174 218.181 81.5174C218.635 81.5174 219.024 80.9312 219.045 80.1985C219.067 79.4657 218.689 78.8569 218.235 78.8569C217.782 78.8569 217.393 79.477 217.371 80.1759Z" fill="#263238"/>
<path d="M214.834 80.4805C215.623 82.7547 216.714 84.9025 218.074 86.8612C217.58 87.2116 217.019 87.4455 216.429 87.5468C215.84 87.648 215.236 87.6141 214.661 87.4474L214.834 80.4805Z" fill="#D58745"/>
<path d="M206.961 77.2562C207.036 77.2692 207.114 77.2616 207.186 77.2339C207.258 77.2062 207.321 77.1595 207.371 77.0984C207.682 76.6637 208.086 76.311 208.551 76.0683C209.016 75.8256 209.529 75.6996 210.049 75.7005C210.159 75.7099 210.269 75.6739 210.353 75.6001C210.438 75.5263 210.492 75.4206 210.503 75.3059C210.507 75.2496 210.501 75.193 210.484 75.1392C210.468 75.0855 210.441 75.0357 210.406 74.9927C210.371 74.9498 210.328 74.9145 210.28 74.8889C210.231 74.8634 210.179 74.848 210.125 74.8437C209.468 74.8231 208.815 74.9681 208.223 75.2664C207.631 75.5646 207.116 76.0074 206.723 76.5573C206.655 76.6444 206.623 76.7558 206.633 76.8675C206.643 76.9793 206.695 77.0824 206.777 77.1548C206.834 77.1962 206.896 77.2302 206.961 77.2562Z" fill="#263238"/>
<path d="M220.86 77.369C220.937 77.3965 221.021 77.3965 221.098 77.369C221.147 77.3469 221.192 77.3148 221.23 77.2744C221.268 77.2341 221.298 77.1864 221.318 77.134C221.338 77.0816 221.348 77.0257 221.347 76.9693C221.346 76.9129 221.335 76.8572 221.314 76.8054C221.05 76.1736 220.644 75.6175 220.131 75.1838C219.618 74.7502 219.012 74.4519 218.365 74.3139C218.258 74.2978 218.149 74.3267 218.062 74.3943C217.975 74.4619 217.917 74.5627 217.901 74.6747C217.888 74.7863 217.917 74.8987 217.981 74.9889C218.046 75.079 218.14 75.1401 218.246 75.1594C218.755 75.2838 219.228 75.5313 219.627 75.8818C220.027 76.2324 220.342 76.6762 220.547 77.1774C220.583 77.2306 220.63 77.2752 220.684 77.3082C220.738 77.3413 220.798 77.362 220.86 77.369Z" fill="#263238"/>
<path d="M202.857 66.0396L203.429 70.0078C202.792 70.3497 202.302 70.9292 202.056 71.631C201.81 72.3327 201.826 73.1055 202.101 73.7956C203.418 77.1776 201.733 82.3746 199.325 84.5166C199.325 84.5166 199.206 83.0736 198.04 83.4456C196.873 83.8176 197.392 91.337 199.789 94.9332C196.743 91.6471 194.566 87.5916 193.471 83.1638C191.473 75.8699 191.679 70.4587 193.05 67.5727L202.857 66.0396Z" fill="#263238"/>
<path d="M215.32 89.657C214.958 90.7041 214.673 91.7781 214.466 92.8699C214.279 92.8812 214.092 92.8812 213.905 92.8699C211.356 92.7572 210.211 91.8215 209.714 90.8182C209.484 90.3233 209.369 89.7786 209.38 89.2286C209.377 88.9162 209.417 88.6049 209.498 88.3042C211.036 89.1128 212.724 89.5629 214.445 89.6232C214.985 89.657 215.32 89.657 215.32 89.657Z" fill="#263238"/>
<path d="M214.445 89.6007L214.175 90.5477C211.777 90.4237 210.103 90.0066 209.38 89.2062C209.377 88.8937 209.417 88.5825 209.498 88.2817C211.036 89.0904 212.724 89.5404 214.445 89.6007Z" fill="white"/>
<path d="M213.905 92.8472C211.356 92.7344 210.211 91.7987 209.714 90.7954C210.684 90.861 211.634 91.1053 212.522 91.5169C213.107 91.7957 213.591 92.2617 213.905 92.8472Z" fill="#DE5753"/>
<path d="M208.569 68.5082C208.848 68.1134 209.248 67.8313 209.703 67.7101C210.158 67.5888 210.639 67.6358 211.064 67.8431C212.889 68.3955 214.499 70.312 216.378 72.747C218.257 75.1821 221.972 75.1933 222.858 73.7503C223.744 72.3074 222.005 70.2894 222.005 70.2894C222.005 70.2894 223.603 61.034 213.937 58.9146C204.271 56.7952 199.184 61.2595 199.184 61.2595C199.184 61.2595 191.16 61.5413 190.544 69.2861C190.336 72.4313 190.517 75.5915 191.084 78.6881C191.084 78.6881 188.924 81.5177 192.985 81.3486C197.597 81.1569 203.137 78.5415 203.407 73.8631C203.677 69.1846 208.569 68.5082 208.569 68.5082Z" fill="#263238"/>
<path d="M192.348 84.5503C193.272 86.6164 194.941 88.2172 196.992 89.0033C199.713 90.0179 201.312 87.5265 200.707 84.7307C200.167 82.2393 198.126 78.6431 195.307 78.8573C192.488 79.0715 191.246 81.98 192.348 84.5503Z" fill="#EBB376"/>
<path d="M180.079 112.35C172.335 114.706 161.514 169.709 162.939 176.845C164.365 183.981 191.559 214.047 191.559 214.047L199.119 208.061C199.119 208.061 176.007 173.903 175.727 166.767C175.446 159.631 185.976 133.172 185.976 133.172C185.976 133.172 185.695 124.255 184.55 119.79C183.747 116.927 182.199 114.352 180.079 112.35Z" fill="#1D6E71"/>
<path opacity="0.5" d="M180.079 112.35C172.335 114.706 161.514 169.709 162.939 176.845C164.365 183.981 191.559 214.047 191.559 214.047L199.119 208.061C199.119 208.061 176.007 173.903 175.727 166.767C175.446 159.631 185.976 133.172 185.976 133.172C185.976 133.172 185.695 124.255 184.55 119.79C183.747 116.927 182.199 114.352 180.079 112.35Z" fill="white"/>
</svg>
